
<svg height="512pt" viewBox="0 -11 512.00134 512" width="512pt" xmlns="http://www.w3.org/2000/svg"><path d="m136.621094 417.804688-42.425782-42.425782c-5.941406-5.9375-15.273437-5.9375-21.214843 0l-68.613281 67.855469c-3.609376 3.605469-5.089844 8.910156-4.03125 14.214844.636718 2.757812 2.121093 5.089843 4.03125 7 1.695312 1.695312 3.605468 2.757812 5.726562 3.605469l63.640625 21.210937c5.515625 1.699219 11.453125.425781 15.484375-3.605469l47.402344-46.640625c5.941406-5.941406 5.941406-15.273437 0-21.214843zm0 0" fill="#ffd400"/><path d="m136.621094 439.019531-47.402344 46.640625c-4.03125 4.03125-9.96875 5.304688-15.488281 3.605469l-38.816407-12.9375 80.492188-79.734375 21.214844 21.210938c5.941406 5.941406 5.941406 15.273437 0 21.214843zm0 0" fill="#ff9f00"/><path d="m450.363281 222.433594-101.609375-59.183594-59.183594-101.613281 60.242188-50.910157c17.820312-15.273437 44.550781-14 60.882812 2.332032l22.910157 22.910156v42.425781h42.425781l22.914062 22.910157c16.332032 16.335937 17.605469 43.0625 2.332032 60.882812zm0 0" fill="#4a696f"/><path d="m450.363281 222.433594-101.609375-59.183594 84.851563-84.855469h42.425781l22.910156 22.910157c16.335938 16.335937 17.609375 43.0625 2.335938 60.882812zm0 0" fill="#384949"/><path d="m293.808594 405.289062c-13.363282 10.820313-29.695313 16.972657-47.09375 16.972657h-50.910156l-16.757813 16.757812c-17.605469 17.605469-46.03125 17.609375-63.640625 0l-42.425781-42.425781c-17.605469-17.605469-17.605469-46.035156 0-63.640625l16.757812-16.757813v-50.910156c0-17.394531 6.152344-33.730468 16.972657-47.09375l114.761718 72.335938zm0 0" fill="#4a696f"/><path d="m293.808594 405.289062c-13.363282 10.820313-29.695313 16.972657-47.09375 16.972657h-50.910156l-16.757813 16.757812c-17.605469 17.605469-46.03125 17.609375-63.640625 0l-21.210938-21.210937 127.277344-127.28125zm0 0" fill="#384949"/><path d="m303.992188 395.53125c-3.179688 3.605469-6.785157 6.789062-10.179688 9.757812l-187.101562-187.097656c2.96875-3.394531 6.152343-7 9.757812-10.183594l173.101562-146.371093 160.792969 160.796875zm0 0" fill="#ff9f00"/><path d="m303.992188 395.53125c-3.179688 3.605469-6.785157 6.789062-10.179688 9.757812l-93.550781-93.546874 169.703125-169.707032 80.398437 80.398438zm0 0" fill="#ff7816"/><path d="m476.03125 78.394531-148.492188 148.492188c-11.667968 11.667969-30.757812 11.667969-42.425781 0s-11.667969-30.757813 0-42.425781l148.492188-148.492188zm0 0" fill="#ffd400"/><path d="m476.03125 78.394531-148.492188 148.492188c-11.667968 11.667969-30.757812 11.667969-42.425781 0l169.707031-169.703125zm0 0" fill="#ff9f00"/></svg>